<svg viewBox="0 0 24 24" xmlns="http://www.w3.org/2000/svg" xmlns:xlink="http://www.w3.org/1999/xlink" width="24.000000" height="24.000000" fill="none">
	<rect id="Frame" width="24.000000" height="24.000000" x="0.000000" y="0.000000" fill="rgb(255,255,255)" fill-opacity="0" />
	<path id="Vector" d="M17.5 17.5L22 22" fill-rule="nonzero" stroke="rgb(26,26,26)" stroke-linecap="round" stroke-linejoin="round" stroke-width="1.5" />
	<path id="Vector" d="M17.5 17.5L22 22" fill-rule="nonzero" stroke="rgb(0,0,0)" stroke-opacity="0.200000003" stroke-linecap="round" stroke-linejoin="round" stroke-width="1.5" />
	<path id="Vector" d="M11 2C6.02944 2 2 6.02944 2 11C2 15.9706 6.02944 20 11 20C15.9706 20 20 15.9706 20 11C20 6.02944 15.9706 2 11 2Z" fill-rule="nonzero" stroke="rgb(26,26,26)" stroke-linejoin="round" stroke-width="1.5" />
	<path id="Vector" d="M11 2C6.02944 2 2 6.02944 2 11C2 15.9706 6.02944 20 11 20C15.9706 20 20 15.9706 20 11C20 6.02944 15.9706 2 11 2Z" fill-rule="nonzero" stroke="rgb(0,0,0)" stroke-opacity="0.200000003" stroke-linejoin="round" stroke-width="1.5" />
</svg>
